<?xml version="1.0" encoding="utf-8"?>
<!-- Generator: Adobe Illustrator 24.2.1, SVG Export Plug-In . SVG Version: 6.00 Build 0)  -->
<svg version="1.1" id="Capa_1" xmlns="http://www.w3.org/2000/svg" xmlns:xlink="http://www.w3.org/1999/xlink" x="0px" y="0px"
	 viewBox="0 0 34 24" style="enable-background:new 0 0 34 24;" xml:space="preserve">
<style type="text/css">
	.st0{fill:url(#XMLID_7_);}
	.st1{fill:url(#XMLID_8_);}
	.st2{fill:url(#XMLID_9_);}
	.st3{fill:url(#XMLID_10_);}
	.st4{fill:#277231;stroke:#277231;stroke-width:0.15;stroke-miterlimit:10;}
</style>
<g id="XMLID_1_">
	
		<linearGradient id="XMLID_7_" gradientUnits="userSpaceOnUse" x1="9.665" y1="-23.9657" x2="14.3939" y2="-28.6946" gradientTransform="matrix(0.9485 -0.3166 0.3166 0.9485 16.4662 37.3297)">
		<stop  offset="0" style="stop-color:#41A535"/>
		<stop  offset="0.5" style="stop-color:#097433"/>
	</linearGradient>
	<path id="XMLID_5_" class="st0" d="M13.4,9.2C18.7,8,22,9.1,22,9.1l3.7-1.2c0,0,0,0,0,0C25.5,7.8,20.8,6.7,13.4,9.2z"/>
	
		<linearGradient id="XMLID_8_" gradientUnits="userSpaceOnUse" x1="-1.7217" y1="-26.3184" x2="14.2041" y2="-26.3184" gradientTransform="matrix(0.9485 -0.3166 0.3166 0.9485 16.4662 37.3297)">
		<stop  offset="0" style="stop-color:#4F69AB"/>
		<stop  offset="0.8827" style="stop-color:#4A98D0"/>
	</linearGradient>
	<path id="XMLID_4_" class="st1" d="M13.4,9.2c-2.1,0.7-4.5,1.7-7.1,3.1c3.8-1.1,7-1.6,11-1.6L22,9.1C22,9.1,18.7,8,13.4,9.2z"/>
	
		<linearGradient id="XMLID_9_" gradientUnits="userSpaceOnUse" x1="11.4639" y1="-17.7808" x2="6.518" y2="-22.7267" gradientTransform="matrix(0.9485 -0.3166 0.3166 0.9485 16.4662 37.3297)">
		<stop  offset="0" style="stop-color:#41A535"/>
		<stop  offset="0.5" style="stop-color:#097433"/>
	</linearGradient>
	<path id="XMLID_3_" class="st2" d="M11.1,22.4c10.7-5,14.4-12,14.6-14.5L22,9.1C22,9.1,22.5,14.9,11.1,22.4z"/>
	
		<linearGradient id="XMLID_10_" gradientUnits="userSpaceOnUse" x1="7.677" y1="-17.519" x2="2.6663" y2="-22.5297" gradientTransform="matrix(0.9485 -0.3166 0.3166 0.9485 16.4662 37.3297)">
		<stop  offset="0" style="stop-color:#005A97"/>
		<stop  offset="0.5" style="stop-color:#498AB9"/>
	</linearGradient>
	<path id="XMLID_2_" class="st3" d="M22,9.1l-4.8,1.6C17.1,14.2,14.9,18,7.4,24c1.3-0.5,2.5-1,3.7-1.5C22.5,14.9,22,9.1,22,9.1z"/>
</g>
<circle class="st4" cx="22" cy="3.1" r="2.9"/>
</svg>
